solid 
 facet normal  7.071068e-01  7.071068e-01  0.000000e+00
   outer loop
     vertex  2.121320e-03 -2.121320e-03  1.000000e-02
     vertex  2.121320e-03 -2.121320e-03 -1.000000e-02
     vertex -2.121320e-03  2.121320e-03 -1.000000e-02
   endloop
 endfacet
 facet normal  7.071068e-01  7.071068e-01  0.000000e+00
   outer loop
     vertex  2.121320e-03 -2.121320e-03  1.000000e-02
     vertex -2.121320e-03  2.121320e-03 -1.000000e-02
     vertex -2.121320e-03  2.121320e-03  1.000000e-02
   endloop
 endfacet
endsolid
