solid 
 facet normal  9.848078e-01  1.736482e-01  0.000000e+00
   outer loop
     vertex  5.209445e-04 -2.954423e-03  1.000000e-02
     vertex  5.209445e-04 -2.954423e-03 -1.000000e-02
     vertex -5.209445e-04  2.954423e-03 -1.000000e-02
   endloop
 endfacet
 facet normal  9.848078e-01  1.736482e-01  0.000000e+00
   outer loop
     vertex  5.209445e-04 -2.954423e-03  1.000000e-02
     vertex -5.209445e-04  2.954423e-03 -1.000000e-02
     vertex -5.209445e-04  2.954423e-03  1.000000e-02
   endloop
 endfacet
 facet normal  9.848078e-01 -1.736482e-01  0.000000e+00
   outer loop
     vertex  9.479055e-03 -2.954423e-03  1.000000e-02
     vertex  9.479055e-03 -2.954423e-03 -1.000000e-02
     vertex  1.052094e-02  2.954423e-03 -1.000000e-02
   endloop
 endfacet
 facet normal  9.848078e-01 -1.736482e-01  0.000000e+00
   outer loop
     vertex  9.479055e-03 -2.954423e-03  1.000000e-02
     vertex  1.052094e-02  2.954423e-03 -1.000000e-02
     vertex  1.052094e-02  2.954423e-03  1.000000e-02
   endloop
 endfacet
 facet normal  9.848078e-01  1.736482e-01  0.000000e+00
   outer loop
     vertex  2.052094e-02 -2.954423e-03  1.000000e-02
     vertex  2.052094e-02 -2.954423e-03 -1.000000e-02
     vertex  1.947906e-02  2.954423e-03 -1.000000e-02
   endloop
 endfacet
 facet normal  9.848078e-01  1.736482e-01  0.000000e+00
   outer loop
     vertex  2.052094e-02 -2.954423e-03  1.000000e-02
     vertex  1.947906e-02  2.954423e-03 -1.000000e-02
     vertex  1.947906e-02  2.954423e-03  1.000000e-02
   endloop
 endfacet
 facet normal  9.848078e-01 -1.736482e-01  0.000000e+00
   outer loop
     vertex  2.947906e-02 -2.954423e-03  1.000000e-02
     vertex  2.947906e-02 -2.954423e-03 -1.000000e-02
     vertex  3.052094e-02  2.954423e-03 -1.000000e-02
   endloop
 endfacet
 facet normal  9.848078e-01 -1.736482e-01  0.000000e+00
   outer loop
     vertex  2.947906e-02 -2.954423e-03  1.000000e-02
     vertex  3.052094e-02  2.954423e-03 -1.000000e-02
     vertex  3.052094e-02  2.954423e-03  1.000000e-02
   endloop
 endfacet
endsolid
