solid 
 facet normal -8.660254e-01  0.000000e+00  5.000000e-01
   outer loop
     vertex  0.000000e+00  5.000000e-03 -5.000000e-03
     vertex  0.000000e+00 -5.000000e-03 -5.000000e-03
     vertex  1.500000e-03 -5.000000e-03 -2.401924e-03
   endloop
 endfacet
 facet normal -8.660254e-01  0.000000e+00  5.000000e-01
   outer loop
     vertex  0.000000e+00  5.000000e-03 -5.000000e-03
     vertex  1.500000e-03 -5.000000e-03 -2.401924e-03
     vertex  1.500000e-03  5.000000e-03 -2.401924e-03
   endloop
 endfacet
 facet normal -8.660254e-01  0.000000e+00  5.000000e-01
   outer loop
     vertex  1.000000e-02  5.000000e-03 -5.000000e-03
     vertex  1.000000e-02 -5.000000e-03 -5.000000e-03
     vertex  1.150000e-02 -5.000000e-03 -2.401924e-03
   endloop
 endfacet
 facet normal -8.660254e-01  0.000000e+00  5.000000e-01
   outer loop
     vertex  1.000000e-02  5.000000e-03 -5.000000e-03
     vertex  1.150000e-02 -5.000000e-03 -2.401924e-03
     vertex  1.150000e-02  5.000000e-03 -2.401924e-03
   endloop
 endfacet
 facet normal -8.660254e-01  0.000000e+00  5.000000e-01
   outer loop
     vertex  2.000000e-02  5.000000e-03 -5.000000e-03
     vertex  2.000000e-02 -5.000000e-03 -5.000000e-03
     vertex  2.150000e-02 -5.000000e-03 -2.401924e-03
   endloop
 endfacet
 facet normal -8.660254e-01  0.000000e+00  5.000000e-01
   outer loop
     vertex  2.000000e-02  5.000000e-03 -5.000000e-03
     vertex  2.150000e-02 -5.000000e-03 -2.401924e-03
     vertex  2.150000e-02  5.000000e-03 -2.401924e-03
   endloop
 endfacet
 facet normal -8.660254e-01  0.000000e+00  5.000000e-01
   outer loop
     vertex  3.000000e-02  5.000000e-03 -5.000000e-03
     vertex  3.000000e-02 -5.000000e-03 -5.000000e-03
     vertex  3.150000e-02 -5.000000e-03 -2.401924e-03
   endloop
 endfacet
 facet normal -8.660254e-01  0.000000e+00  5.000000e-01
   outer loop
     vertex  3.000000e-02  5.000000e-03 -5.000000e-03
     vertex  3.150000e-02 -5.000000e-03 -2.401924e-03
     vertex  3.150000e-02  5.000000e-03 -2.401924e-03
   endloop
 endfacet
 facet normal -8.660254e-01  0.000000e+00  5.000000e-01
   outer loop
     vertex  4.000000e-02  5.000000e-03 -5.000000e-03
     vertex  4.000000e-02 -5.000000e-03 -5.000000e-03
     vertex  4.150000e-02 -5.000000e-03 -2.401924e-03
   endloop
 endfacet
 facet normal -8.660254e-01  0.000000e+00  5.000000e-01
   outer loop
     vertex  4.000000e-02  5.000000e-03 -5.000000e-03
     vertex  4.150000e-02 -5.000000e-03 -2.401924e-03
     vertex  4.150000e-02  5.000000e-03 -2.401924e-03
   endloop
 endfacet
endsolid
